<svg width="44" height="44" viewBox="0 0 44 44" fill="none" xmlns="http://www.w3.org/2000/svg" role="img" aria-labelledby="title desc">
  <title id="title">LaundryOS mark</title>
  <desc id="desc">A blue laundry basket with teal water waves.</desc>
  <rect width="44" height="44" rx="6" fill="#2563EB"/>
  <path d="M13 17.5H31L29.7 33H14.3L13 17.5Z" fill="white" fill-opacity="0.94"/>
  <path d="M17 17.5C17 13.9 19.2 11.5 22 11.5C24.8 11.5 27 13.9 27 17.5" stroke="white" stroke-width="2.4" stroke-linecap="round"/>
  <path d="M17.2 25.1C18.6 23.9 20 23.9 21.4 25.1C22.8 26.3 24.2 26.3 25.6 25.1C26.6 24.3 27.6 24 28.6 24.3L28.2 29.3H15.8L15.4 24.4C16 24.4 16.6 24.6 17.2 25.1Z" fill="#14B8A6"/>
  <path d="M15 20.5H29" stroke="#BFDBFE" stroke-width="1.6" stroke-linecap="round"/>
</svg>
